<svg width="1200" height="630" viewBox="0 0 1200 630" fill="none" xmlns="http://www.w3.org/2000/svg">
  <rect width="1200" height="630" fill="#050816"/>
  <circle cx="1050" cy="80" r="310" fill="url(#a)" fill-opacity=".42"/>
  <circle cx="60" cy="610" r="310" fill="url(#b)" fill-opacity=".24"/>
  <path d="M0 72H1200M0 144H1200M0 216H1200M0 288H1200M0 360H1200M0 432H1200M0 504H1200M0 576H1200M80 0V630M160 0V630M240 0V630M320 0V630M400 0V630M480 0V630M560 0V630M640 0V630M720 0V630M800 0V630M880 0V630M960 0V630M1040 0V630M1120 0V630" stroke="white" stroke-opacity=".035"/>
  <text x="90" y="218" fill="#00E5FF" font-family="monospace" font-size="28" letter-spacing="5">LARAVEL DEVELOPER</text>
  <text x="84" y="340" fill="white" font-family="Arial, sans-serif" font-weight="700" font-size="92">Sahil Suthar</text>
  <text x="90" y="420" fill="#94A3B8" font-family="Arial, sans-serif" font-size="34">Scalable applications. APIs. Production systems.</text>
  <rect x="90" y="492" width="235" height="58" rx="29" fill="#00E5FF"/>
  <text x="133" y="530" fill="#050816" font-family="Arial, sans-serif" font-weight="700" font-size="22">2.6+ YEARS</text>
  <defs>
    <radialGradient id="a"><stop stop-color="#8B5CF6"/><stop offset="1" stop-color="#8B5CF6" stop-opacity="0"/></radialGradient>
    <radialGradient id="b"><stop stop-color="#00E5FF"/><stop offset="1" stop-color="#00E5FF" stop-opacity="0"/></radialGradient>
  </defs>
</svg>
